<svg xmlns="http://www.w3.org/2000/svg" viewBox="0 0 64 64" role="img" aria-label="TextGenetic AI">
  <defs>
    <linearGradient id="fav" x1="14" y1="6" x2="50" y2="58" gradientUnits="userSpaceOnUse">
      <stop offset="0" stop-color="#7fe3f7"/>
      <stop offset="1" stop-color="#3f8cff"/>
    </linearGradient>
  </defs>
  <rect width="64" height="64" rx="15" fill="#0b1e57"/>
  <g stroke="#ffffff" stroke-width="2" stroke-linecap="round" opacity=".22">
    <line x1="21.5" y1="14" x2="42.5" y2="14"/>
    <line x1="21.5" y1="26" x2="42.5" y2="26"/>
    <line x1="21.5" y1="38" x2="42.5" y2="38"/>
    <line x1="21.5" y1="50" x2="42.5" y2="50"/>
  </g>
  <path d="M32 8 C18 8 18 20 32 20 C46 20 46 32 32 32 C18 32 18 44 32 44 C46 44 46 56 32 56"
        fill="none" stroke="#ffffff" stroke-width="3.4" stroke-linecap="round" opacity=".5"/>
  <path d="M32 8 C46 8 46 20 32 20 C18 20 18 32 32 32 C46 32 46 44 32 44 C18 44 18 56 32 56"
        fill="none" stroke="url(#fav)" stroke-width="3.4" stroke-linecap="round"/>
  <g>
    <circle cx="42.5" cy="14" r="3" fill="#7fe3f7"/><circle cx="21.5" cy="26" r="3" fill="#7fe3f7"/>
    <circle cx="42.5" cy="38" r="3" fill="#7fe3f7"/><circle cx="21.5" cy="50" r="3" fill="#7fe3f7"/>
    <circle cx="21.5" cy="14" r="3" fill="#ffffff"/><circle cx="42.5" cy="26" r="3" fill="#ffffff"/>
    <circle cx="21.5" cy="38" r="3" fill="#ffffff"/><circle cx="42.5" cy="50" r="3" fill="#ffffff"/>
    <circle cx="32" cy="32" r="2.8" fill="#7fe3f7"/>
  </g>
</svg>
